<svg data-v-423bf9ae="" xmlns="http://www.w3.org/2000/svg" viewBox="0 0 424 90" class="iconLeft"><!----><defs data-v-423bf9ae=""><linearGradient data-v-423bf9ae="" gradientTransform="rotate(25)" id="dfba661f-6ddd-4bc1-9fcf-3782cc768615" x1="0%" y1="0%" x2="100%" y2="0%"><stop data-v-423bf9ae="" offset="0%" style="stop-color: rgb(255, 75, 3); stop-opacity: 1;"></stop><stop data-v-423bf9ae="" offset="100%" style="stop-color: rgb(252, 255, 101); stop-opacity: 1;"></stop></linearGradient></defs><!----><g data-v-423bf9ae="" id="fad3a71e-61e7-4d19-9567-2ba8bac9d1a1" fill="#ffffff" transform="matrix(5.61797736755893,0,0,5.61797736755893,59.735535736018704,15)"><path d="M6.99 1.30L6.66 2.16Q6.13 1.81 5.49 1.60Q4.84 1.39 4.21 1.39L4.21 1.39Q3.30 1.39 2.72 1.77Q2.14 2.16 2.14 3.01L2.14 3.01Q2.14 3.46 2.34 3.78Q2.53 4.10 2.87 4.33Q3.21 4.56 3.63 4.74Q4.06 4.91 4.52 5.07L4.52 5.07Q5.04 5.24 5.57 5.45Q6.09 5.66 6.51 5.98Q6.93 6.30 7.20 6.78Q7.46 7.25 7.46 7.94L7.46 7.94Q7.46 8.65 7.18 9.17Q6.90 9.69 6.44 10.02Q5.98 10.36 5.38 10.52Q4.79 10.68 4.16 10.68L4.16 10.68Q3.23 10.68 2.35 10.36Q1.46 10.04 0.81 9.41L0.81 9.41L1.13 8.60Q1.78 9.17 2.58 9.49Q3.39 9.81 4.21 9.81L4.21 9.81Q4.68 9.81 5.09 9.72Q5.50 9.62 5.82 9.41Q6.13 9.21 6.31 8.89Q6.50 8.57 6.50 8.12L6.50 8.12Q6.51 7.63 6.27 7.28Q6.03 6.93 5.66 6.67Q5.28 6.41 4.80 6.22Q4.33 6.03 3.86 5.88L3.86 5.88Q3.36 5.71 2.88 5.46Q2.39 5.21 2.02 4.87Q1.64 4.54 1.41 4.10Q1.18 3.67 1.18 3.14L1.18 3.14Q1.18 2.45 1.44 1.95Q1.71 1.46 2.14 1.14Q2.58 0.83 3.14 0.68Q3.71 0.53 4.30 0.53L4.30 0.53Q5.04 0.53 5.74 0.73Q6.44 0.94 6.99 1.30L6.99 1.30ZM11.31 9.84L11.31 10.58Q11.31 10.60 11.01 10.64Q10.71 10.68 10.36 10.68L10.36 10.68Q10.01 10.68 9.80 10.58Q9.59 10.47 9.49 10.26Q9.38 10.05 9.35 9.75Q9.32 9.45 9.32 9.04L9.32 9.04L9.32 0.14L10.21 0.14L10.21 9.31Q10.21 9.60 10.31 9.76Q10.42 9.91 10.67 9.91L10.67 9.91Q10.81 9.91 11.00 9.89Q11.20 9.87 11.31 9.84L11.31 9.84ZM17.93 7.18L13.01 7.18Q12.99 7.95 13.24 8.55L13.24 8.55Q13.34 8.81 13.52 9.06Q13.69 9.31 13.94 9.50Q14.20 9.69 14.55 9.81Q14.91 9.93 15.39 9.93L15.39 9.93Q15.79 9.93 16.16 9.82Q16.52 9.72 16.80 9.59L16.80 9.59Q17.14 9.44 17.43 9.24L17.43 9.24L17.44 10.14Q17.44 10.14 17.29 10.23Q17.14 10.32 16.88 10.42Q16.62 10.51 16.26 10.60Q15.90 10.68 15.51 10.68L15.51 10.68Q14.38 10.68 13.69 10.32Q13.01 9.97 12.63 9.41Q12.25 8.85 12.13 8.15Q12.01 7.46 12.01 6.78L12.01 6.78Q12.01 6.13 12.21 5.49Q12.40 4.84 12.79 4.33Q13.17 3.82 13.75 3.51Q14.32 3.19 15.09 3.19L15.09 3.19Q15.95 3.19 16.50 3.54Q17.05 3.89 17.37 4.42Q17.68 4.96 17.81 5.59Q17.93 6.22 17.93 6.78L17.93 6.78L17.93 7.18ZM12.99 6.43L16.95 6.43Q16.95 5.96 16.85 5.52Q16.74 5.07 16.52 4.72Q16.30 4.37 15.94 4.16Q15.58 3.95 15.09 3.95L15.09 3.95Q14.60 3.95 14.22 4.17Q13.83 4.40 13.56 4.75Q13.29 5.10 13.14 5.54Q12.99 5.99 12.99 6.43L12.99 6.43ZM24.98 7.18L20.05 7.18Q20.03 7.95 20.29 8.55L20.29 8.55Q20.38 8.81 20.56 9.06Q20.73 9.31 20.99 9.50Q21.24 9.69 21.59 9.81Q21.95 9.93 22.43 9.93L22.43 9.93Q22.83 9.93 23.20 9.82Q23.56 9.72 23.84 9.59L23.84 9.59Q24.18 9.44 24.47 9.24L24.47 9.24L24.49 10.14Q24.49 10.14 24.33 10.23Q24.18 10.32 23.92 10.42Q23.66 10.51 23.30 10.60Q22.95 10.68 22.55 10.68L22.55 10.68Q21.42 10.68 20.73 10.32Q20.05 9.97 19.67 9.41Q19.29 8.85 19.17 8.15Q19.05 7.46 19.05 6.78L19.05 6.78Q19.05 6.13 19.25 5.49Q19.45 4.84 19.83 4.33Q20.22 3.82 20.79 3.51Q21.36 3.19 22.13 3.19L22.13 3.19Q22.99 3.19 23.54 3.54Q24.09 3.89 24.41 4.42Q24.72 4.96 24.85 5.59Q24.98 6.22 24.98 6.78L24.98 6.78L24.98 7.18ZM20.03 6.43L24.00 6.43Q24.00 5.96 23.89 5.52Q23.79 5.07 23.56 4.72Q23.34 4.37 22.98 4.16Q22.62 3.95 22.13 3.95L22.13 3.95Q21.64 3.95 21.26 4.17Q20.87 4.40 20.60 4.75Q20.33 5.10 20.18 5.54Q20.03 5.99 20.03 6.43L20.03 6.43ZM31.89 3.36L28.88 6.48L32.34 10.50L31.11 10.50L28.08 6.90L27.54 6.90L27.54 10.50L26.66 10.50L26.66 0L27.54 0L27.54 6.06L28.08 6.06L30.76 3.36L31.89 3.36ZM38.54 10.50L37.59 10.50L37.59 0.71L38.74 0.71L43.90 9.32L43.90 0.71L44.87 0.71L44.87 10.50L43.61 10.50L38.54 2.07L38.54 10.50ZM49.64 3.19L49.64 3.19Q49.77 3.19 49.99 3.21Q50.22 3.22 50.48 3.30Q50.74 3.37 51.00 3.54Q51.27 3.70 51.49 3.98Q51.70 4.26 51.84 4.68Q51.98 5.11 51.98 5.73L51.98 5.73L51.98 10.50L51.23 10.50L51.14 9.35Q51.14 9.35 51.02 9.56Q50.89 9.77 50.62 10.02Q50.36 10.28 49.95 10.48Q49.53 10.68 48.94 10.68L48.94 10.68Q47.78 10.68 47.12 10.12Q46.45 9.55 46.52 8.46L46.52 8.46Q46.59 7.22 47.68 6.66Q48.78 6.10 51.09 6.15L51.09 6.15L51.09 5.71Q51.09 5.00 50.88 4.63Q50.67 4.27 50.39 4.12Q50.11 3.98 49.84 3.97Q49.57 3.96 49.46 3.96L49.46 3.96Q48.94 3.96 48.55 4.06Q48.16 4.16 47.89 4.27L47.89 4.27Q47.57 4.41 47.35 4.56L47.35 4.56L47.35 3.68Q47.68 3.56 48.05 3.44L48.05 3.44Q48.37 3.35 48.78 3.27Q49.20 3.19 49.64 3.19ZM48.90 9.93L48.90 9.93Q49.67 9.93 50.11 9.65Q50.55 9.38 50.77 8.97Q50.99 8.55 51.04 8.09Q51.09 7.62 51.09 7.21L51.09 7.21L51.09 6.92L50.29 6.92Q50.01 6.92 49.53 6.96Q49.06 7.01 48.60 7.17Q48.15 7.34 47.82 7.64Q47.49 7.94 47.49 8.46L47.49 8.46Q47.49 9.24 47.89 9.58Q48.29 9.93 48.90 9.93ZM55.02 3.36L55.02 10.50L54.14 10.50L54.14 3.36L55.02 3.36ZM55.17 0.97L55.17 0.97Q55.17 1.20 55.01 1.37Q54.84 1.54 54.60 1.54L54.60 1.54Q54.36 1.54 54.18 1.37Q54.00 1.20 54.00 0.97L54.00 0.97Q54.00 0.73 54.18 0.55Q54.36 0.36 54.60 0.36L54.60 0.36Q54.84 0.36 55.01 0.55Q55.17 0.73 55.17 0.97ZM59.26 9.84L59.26 10.58Q59.26 10.60 58.96 10.64Q58.66 10.68 58.31 10.68L58.31 10.68Q57.96 10.68 57.75 10.58Q57.54 10.47 57.44 10.26Q57.33 10.05 57.30 9.75Q57.27 9.45 57.27 9.04L57.27 9.04L57.27 0.14L58.16 0.14L58.16 9.31Q58.16 9.60 58.26 9.76Q58.37 9.91 58.62 9.91L58.62 9.91Q58.76 9.91 58.95 9.89Q59.15 9.87 59.26 9.84L59.26 9.84ZM64.44 3.82L64.12 4.52Q63.71 4.26 63.25 4.10Q62.79 3.95 62.37 3.95L62.37 3.95Q61.77 3.95 61.44 4.22Q61.11 4.49 61.11 5.08L61.11 5.08Q61.11 5.36 61.24 5.56Q61.36 5.77 61.57 5.92Q61.78 6.08 62.05 6.20Q62.33 6.31 62.64 6.41L62.64 6.41Q63 6.54 63.37 6.69Q63.74 6.85 64.04 7.09Q64.34 7.34 64.53 7.70Q64.72 8.06 64.72 8.61L64.72 8.61Q64.72 9.14 64.52 9.53Q64.32 9.93 63.99 10.18Q63.66 10.43 63.23 10.55Q62.80 10.67 62.34 10.67L62.34 10.67Q61.67 10.67 61.01 10.44Q60.35 10.21 59.89 9.72L59.89 9.72L60.20 8.96Q60.68 9.41 61.24 9.66Q61.80 9.91 62.37 9.91L62.37 9.91Q62.99 9.91 63.36 9.63Q63.73 9.34 63.74 8.74L63.74 8.74Q63.74 8.41 63.62 8.19Q63.50 7.97 63.29 7.80Q63.08 7.64 62.80 7.52Q62.51 7.39 62.19 7.28L62.19 7.28Q61.82 7.15 61.46 7Q61.10 6.85 60.80 6.61Q60.51 6.37 60.33 6.02Q60.16 5.67 60.16 5.15L60.16 5.15Q60.16 4.63 60.35 4.26Q60.54 3.88 60.85 3.65Q61.17 3.42 61.58 3.30Q61.99 3.19 62.44 3.19L62.44 3.19Q62.97 3.19 63.50 3.36Q64.02 3.53 64.44 3.82L64.44 3.82Z"></path></g><!----><g data-v-423bf9ae="" id="a2b88182-bc08-4e9c-b8b6-092be8cde0d8" transform="matrix(1.0246263384266667,0,0,1.0246263384266667,-26.79003954417115,-5.14697263999556)" stroke="none" fill="#ffffff"><path d="M68.766 21.575c-.076-.334-.142-.614-.18-.828-.058-.316-.106-1.084-.163-1.974-.182-2.877-.456-7.225-1.581-9.289-1.357-2.49-2.74-3.971-5.494-3.39-.63.132-1.55.107-2.443.054-.435-.025-.868-.051-1.287-.051-1.093 0-2.461.16-3.34 1.405-.302.427-.52.836-.707 1.234-.433-.234-1-.399-1.73-.476-.54-.057-.973-.083-1.362-.083-1.612 0-2.686.467-4.104 1.784a4.242 4.242 0 00-1.123 1.743c-1.22-1.277-2.97-2.315-4.9-1.991-2.104.351-3.079 1.978-3.861 3.286-.117.195-.23.385-.344.563-.552.868-.679 2.529-.607 4.274a4.649 4.649 0 00-1.9-.277c-1.508.089-2.248.682-2.862 1.458a.502.502 0 00-.434.313c-.017.044-.098.259-.215.58-.115.165-.229.33-.362.507-.354.471-.49 1.18-.5 1.988-.738 2.261-1.6 5.265-1.693 7.227-.068 1.429-.286 3.904-.518 6.525-.318 3.607-.679 7.696-.772 10.393-.106 3.077.534 6.719 1.049 9.646.273 1.551.508 2.89.564 3.771.068 1.083-.108 3.822-.293 6.723-.251 3.93-.537 8.384-.351 10.522.037.42.069.875.103 1.357.267 3.744.67 9.402 4.191 13.806.749.936 1.999 1.43 3.616 1.43 4.168 0 10.424-3.217 14.551-7.482 2.108-2.179 4.593-5.58 4.467-9.418-.117-3.566-.359-6.326-.555-8.543-.298-3.391-.478-5.437.096-6.977a.907.907 0 01.151-.292c.28-.28.629-.459 1.069-.686 1.611-.828 4.045-2.081 7.914-10.097.372-.637.768-1.268 1.158-1.891 1.424-2.273 2.77-4.421 2.77-6.442 0-.84-.124-2.171-.3-3.725.394-1.148 1.964-5.773 2.7-8.717.735-2.942-.015-6.206-.418-7.96zm-.554 7.717c-.493 1.976-1.37 4.725-2.005 6.644l-.104-.849c-.268-2.167-.544-4.409-.65-5.95-.161-2.335-1.133-4.009-2.398-5.412.872-.018 1.891-.046 2.889-.093a.501.501 0 00-.023-.999c-.1 0-.404 0-.741-.514-.97-1.479-1.037-5.396-.129-7.484a.498.498 0 00-.681-.646l-.472.24c-.673.345-.673.345-1.601.396l-.634.037a.498.498 0 00-.401.249c-.698 1.206-1.728 1.938-2.484 2.35-.404-.687-.85-1.286-1.317-1.701a4.574 4.574 0 00-.418-.458c.105-.644.217-2.171-.967-2.817a2.661 2.661 0 00-.582-.233 3.01 3.01 0 00-1.012-.072 3.43 3.43 0 00-1.079.28c.169-.422.296-.85.424-1.291.041-.14.085-.283.128-.425.048-.16.103-.321.158-.484.067-.198.142-.398.228-.603.187-.443.419-.897.756-1.375.492-.697 1.224-.982 2.523-.982.4 0 .813.025 1.229.049.984.058 1.981.079 2.708-.074 1.975-.417 2.944.203 4.409 2.89 1.02 1.87 1.297 6.254 1.462 8.874.063.996.108 1.716.177 2.09.041.225.108.52.189.872.382 1.67 1.097 4.782.418 7.491zm-5.047 18.596c-.37.589-.74 1.188-1.096 1.79l-.018-.021c-.032.067-.054.127-.086.195-3.73 7.736-5.988 8.896-7.482 9.665-.478.245-.928.477-1.322.871-.152.154-.276.367-.38.648-.651 1.75-.464 3.881-.153 7.411.194 2.206.436 4.95.551 8.489.115 3.487-2.213 6.65-4.186 8.689-3.96 4.092-9.907 7.178-13.833 7.178-1.321 0-2.275-.355-2.835-1.055-3.326-4.16-3.701-9.415-3.974-13.252-.035-.488-.067-.947-.104-1.372-.18-2.064.103-6.479.353-10.373.196-3.06.365-5.702.293-6.849-.059-.937-.299-2.301-.577-3.882-.506-2.881-1.137-6.466-1.035-9.438.093-2.67.452-6.745.769-10.339.232-2.631.451-5.117.521-6.565.061-1.266.478-3.043.967-4.749.437 2.192 1.233 4.265 1.248 4.302.419 1.08.881 2.397 1.327 3.672.448 1.279.87 2.488 1.211 3.339.487 1.215 1.359 2.434 2.408 2.991.171.523.36.952.549 1.117.295.258.67.522 1.218.522.371 0 .776-.121 1.239-.369 1.029-.551 1.081-1.498.705-2.743.011-.018.024-.034.036-.052.184.211.387.391.636.498.482.207.918.356 1.328.467.047.173.095.342.141.481.289.866 1.088 1.383 2.137 1.383.441 0 .902-.091 1.334-.264 1.139-.455 1.433-1.955 1.323-2.961.312.017.616.02.879.02 1.157 0 1.779-1.24 1.981-2.238a5.84 5.84 0 001.685-2.361c.413-1.062.452-1.944.49-2.797.045-1.015.087-1.973.707-3.337.238-.524.474-1 .704-1.459.141.818.395 1.617.827 2.351 1.966 3.342 1.927 3.52 1.668 4.675-.05.223-.106.477-.16.783-.064.363-.214.878-.388 1.476-.479 1.646-1.134 3.901-1.076 6.361a.505.505 0 00.512.488.493.493 0 00.315-.13.492.492 0 00.173-.381c-.055-2.306.576-4.475 1.036-6.059.182-.625.339-1.165.412-1.581.051-.289.104-.528.152-.738.335-1.502.25-1.945-1.783-5.4-.593-1.008-.81-2.178-.814-3.356-.001-.078.003-.155.004-.233.002-.101.001-.201.006-.302.009-.175.024-.348.041-.522.023-.247.053-.49.09-.732a16.126 16.126 0 01.55-2.345l.032-.105c.056-.176.111-.344.167-.506l.05-.142a13.347 13.347 0 00.275.619c.253.516.557 1.038.838 1.508l.149.25c.21.349.39.648.494.857.15.299.407.584.719.825.228.176.484.326.75.442.351.153.715.246 1.05.246.154 0 .299-.02.431-.057a.935.935 0 00.48-.35c.106-.136.195-.288.255-.462.029-.083.048-.171.068-.258.344.293.681.589 1.008.888.179.163.353.329.522.496 1.465 1.433 2.61 3.049 2.776 5.46.108 1.568.387 3.823.655 6.003.1.81.2 1.623.292 2.407l.07.605.062.561c.146 1.328.248 2.479.248 3.194 0 1.056-.475 2.223-1.147 3.458a37.57 37.57 0 01-1.026 1.743c-.145.236-.293.472-.442.711zM32.004 19.161c.4-.35.885-.556 1.692-.604a3.796 3.796 0 011.908.381 31.303 31.303 0 00.191 1.731c.086.629.183 1.214.278 1.71.221 1.146.358 2.215.491 3.249.23 1.794.43 3.344.988 4.699.29.703.446 1.798.613 2.958.086.603.177 1.208.287 1.785-.058-.166-.076-.229-.077-.231a.266.266 0 00-.026-.06c-.019-.03-.46-.75-1.312-.75a1.68 1.68 0 00-.556.1c-.984.348-1.52 1.122-1.434 2.071.018.196.111.754.253 1.404a5.994 5.994 0 01-1.05-1.733c-.333-.831-.752-2.029-1.196-3.298-.449-1.283-.913-2.609-1.339-3.704-.697-1.791-1.424-4.466-1.465-6.257-.016-.704.071-1.274.312-1.596.167-.223.315-.435.458-.639l.047-.066.17-.242a9.67 9.67 0 01.339-.459c.139-.172.278-.318.428-.449zm4.984-5.062c.118-.186.236-.383.358-.586.712-1.189 1.52-2.538 3.168-2.813.188-.031.373-.046.557-.046 1.568 0 2.97 1.072 3.881 2.212-.049.261-.092.523-.133.783-.125.8-.256 1.628-.612 2.385-.518 1.101-.98 2.82-1.284 4.566-.029.165-.055.33-.081.494-.026.166-.05.33-.072.494-.197 1.421-.276 2.786-.178 3.768.057.569.05 1.406.043 2.375-.01 1.312-.019 2.751.11 4.061-.6.14-1.682.455-2.196 1.016-.029.031-.03.074-.04.114-.006.025-.027.046-.025.073.033.459.101 1.042.188 1.667.131.946.311 1.985.503 2.89a11.553 11.553 0 01-.667-.263c-.194-.083-.357-.272-.499-.529a3.7 3.7 0 01-.263-.631 8.49 8.49 0 01-.221-.82c-.154-.69-.267-1.46-.368-2.164-.175-1.223-.341-2.378-.678-3.197-.508-1.233-.7-2.722-.921-4.446-.135-1.049-.274-2.134-.5-3.31a31.158 31.158 0 01-.496-3.852c-.123-1.993.018-3.6.426-4.241zm14.746-4.844c.775.082 1.215.25 1.46.396-.125.358-.234.707-.33 1.035-.23.792-.429 1.476-.886 2.135l-.137.197c-1.263 1.82-2.695 3.883-1.785 5.098l.004.005c.144.294.415.538.648.702.437.31 1.071.574 1.685.634.322.078.628.126.902.154a16.11 16.11 0 00-.527 2.57c-.02.172-.029.347-.042.521-.012.157-.025.313-.031.471a51.514 51.514 0 00-1.486 3.013c-.701 1.541-.751 2.691-.796 3.707-.036.807-.069 1.57-.422 2.479a4.942 4.942 0 01-.701 1.231 155.325 155.325 0 00-.284-4.017c-.146-.511-.733-1.476-1.915-1.476-.074 0-.157.025-.234.033-.148.014-.294.021-.451.063l-.048.013a26.33 26.33 0 00-.501.138c-1.319.38-1.562.635-1.747 1.802-.058.369-.085.924-.096 1.552l-.004.293-.001.321c0 .327.001.661.005.996a9.482 9.482 0 01-.221-1.17c-.011-.088-.02-.179-.03-.269-.008-.079-.018-.157-.025-.237-.122-1.292-.112-2.732-.103-3.907.008-.998.014-1.86-.048-2.482-.09-.906-.013-2.193.174-3.538a31.069 31.069 0 01.155-.988c.289-1.645.72-3.26 1.196-4.271.212-.451.352-.904.457-1.356.102-.437.171-.872.238-1.3l.057-.355c.046-.281.096-.551.157-.811.172-.738.441-1.395 1.033-1.944 1.236-1.147 2.068-1.516 3.424-1.516.354 0 .752.025 1.256.078zm12.608 13.412a.22.22 0 00.017.025c-.853.026-1.648.041-2.28.049a41.057 41.057 0 00-1.521-1.345 22.355 22.355 0 00-1.303-3.252c.826-.449 1.921-1.228 2.729-2.5l.367-.021c.759-.042 1.029-.064 1.397-.215-.566 2.319-.465 5.644.594 7.259z"></path><path d="M48.074 60.763c-.049.006-4.899.644-7.688-.642-2.123-.98-3.032-.653-4.083-.272-.521.188-1.061.383-1.861.455a.5.5 0 00-.453.543.508.508 0 00.543.453 7.245 7.245 0 001.892-.434l.22-.077c.925-.336 1.552-.552 3.21.192.04.018.073.028.114.048 1.564.722 3.632.901 5.306.901 1.595 0 2.833-.163 2.936-.178a.5.5 0 00.428-.562.492.492 0 00-.564-.427z"></path></g><!----></svg>