<svg data-v-423bf9ae="" xmlns="http://www.w3.org/2000/svg" viewBox="0 0 931.6660504995876 60" class="font"><!----><!----><!----><g data-v-423bf9ae="" id="0ddacc28-4ac0-4b7e-95fe-278c26b9cc89" fill="#FCE4EC" transform="matrix(13.767107662860946,0,0,13.767107662860946,0.000009265587038953527,-74.27354486329233)"><path d="M0.23 9.70L0.23 9.70Q0.01 9.67 0.01 9.44L0.01 9.44Q0 9.07 0 8.72Q0 8.36 0 7.99L0 7.99Q0 7.79 0.02 7.58L0.02 7.58Q0.03 7.43 0.03 7.30Q0.03 7.17 0.03 7.06L0.03 7.06Q0.02 6.99 0.01 6.90Q0.01 6.80 0 6.67L0 6.67Q0 6.60 0.00 6.51Q0.01 6.41 0.01 6.28L0.01 6.28Q0.02 6.19 0.02 6.11Q0.03 6.04 0.03 5.99L0.03 5.99L0.03 5.84L0.03 5.83L0.03 5.78Q0.01 5.61 0.03 5.54L0.03 5.54Q0.05 5.49 0.12 5.44L0.12 5.44Q0.39 5.30 0.45 5.61L0.45 5.61Q0.51 5.84 0.52 6.07Q0.53 6.29 0.51 6.51L0.51 6.51L0.51 6.51Q0.49 6.73 0.50 6.94Q0.51 7.15 0.49 7.36L0.49 7.36Q0.46 7.55 0.45 7.68Q0.44 7.82 0.43 7.92L0.43 7.92Q0.42 8.05 0.42 8.20Q0.42 8.35 0.42 8.51L0.42 8.51Q0.43 8.54 0.43 8.59Q0.43 8.63 0.43 8.70L0.43 8.70Q0.43 8.80 0.43 8.91Q0.43 9.02 0.44 9.13L0.44 9.13Q0.44 9.20 0.44 9.27Q0.44 9.33 0.44 9.40L0.44 9.40Q0.44 9.54 0.43 9.55L0.43 9.55Q0.40 9.68 0.23 9.70ZM5.05 5.67L5.05 5.67Q5.20 5.82 5.28 5.99Q5.37 6.16 5.46 6.34L5.46 6.34Q5.55 6.54 5.51 6.74Q5.48 6.94 5.29 7.13L5.29 7.13Q5.15 7.28 4.81 7.37L4.81 7.37Q4.69 7.40 4.55 7.44Q4.41 7.48 4.35 7.60L4.35 7.60Q4.31 7.72 4.38 7.84L4.38 7.84Q4.44 7.97 4.48 8.05Q4.53 8.13 4.55 8.18L4.55 8.18Q4.59 8.24 4.64 8.33Q4.70 8.42 4.77 8.52L4.77 8.52Q4.93 8.74 5.10 8.93Q5.28 9.13 5.46 9.30L5.46 9.30L5.49 9.34Q5.64 9.49 5.50 9.63L5.50 9.63Q5.34 9.79 5.20 9.64L5.20 9.64Q5.08 9.52 4.99 9.43Q4.90 9.34 4.83 9.26L4.83 9.26Q4.66 9.05 4.52 8.83L4.52 8.83Q4.42 8.67 4.31 8.53Q4.20 8.39 4.11 8.23L4.11 8.23Q3.83 7.74 3.43 7.58L3.43 7.58Q3.00 7.42 2.80 7.70L2.80 7.70Q2.74 7.80 2.74 7.92L2.74 7.92L2.74 9.40L2.74 9.49Q2.74 9.69 2.53 9.70L2.53 9.70Q2.32 9.69 2.32 9.44L2.32 9.44Q2.32 9.28 2.33 9.12Q2.34 8.95 2.34 8.76L2.34 8.76Q2.35 8.63 2.34 8.49Q2.33 8.35 2.33 8.22L2.33 8.22Q2.33 8.09 2.34 7.96Q2.34 7.83 2.34 7.70L2.34 7.70Q2.35 7.40 2.32 7.07L2.32 7.07Q2.32 6.84 2.33 6.61Q2.34 6.38 2.34 6.14L2.34 6.14Q2.33 6.02 2.33 5.86Q2.33 5.71 2.37 5.58L2.37 5.58Q2.50 5.42 2.95 5.42L2.95 5.42L3.17 5.42Q3.41 5.42 3.66 5.44Q3.91 5.46 4.16 5.45L4.16 5.45Q4.72 5.42 5.05 5.67ZM3.13 7.15L3.13 7.15Q3.39 7.16 3.59 7.16Q3.79 7.16 3.92 7.14L3.92 7.14Q4.05 7.13 4.21 7.11Q4.38 7.09 4.57 7.05L4.57 7.05Q4.96 6.97 5.07 6.69L5.07 6.69Q5.12 6.59 5.11 6.47L5.11 6.47Q5.09 6.34 5.03 6.24Q4.96 6.14 4.86 6.07Q4.76 6.00 4.65 5.94Q4.53 5.89 4.42 5.87L4.42 5.87Q4.14 5.82 3.85 5.83Q3.57 5.84 3.28 5.82L3.28 5.82Q3.23 5.82 3.18 5.82Q3.12 5.82 3.07 5.82L3.07 5.82Q2.93 5.81 2.85 5.89L2.85 5.89Q2.79 5.96 2.80 6.08L2.80 6.08Q2.81 6.12 2.81 6.23L2.81 6.23Q2.80 6.33 2.79 6.43Q2.77 6.52 2.76 6.62L2.76 6.62Q2.72 6.88 2.82 7.01L2.82 7.01Q2.91 7.14 3.13 7.15ZM10.04 5.67L10.04 5.67Q10.18 5.82 10.26 5.99Q10.35 6.16 10.44 6.34L10.44 6.34Q10.53 6.54 10.50 6.74Q10.46 6.94 10.27 7.13L10.27 7.13Q10.13 7.28 9.80 7.37L9.80 7.37Q9.67 7.40 9.53 7.44Q9.39 7.48 9.34 7.60L9.34 7.60Q9.30 7.72 9.36 7.84L9.36 7.84Q9.43 7.97 9.47 8.05Q9.51 8.13 9.54 8.18L9.54 8.18Q9.57 8.24 9.63 8.33Q9.68 8.42 9.75 8.52L9.75 8.52Q9.91 8.74 10.09 8.93Q10.26 9.13 10.44 9.30L10.44 9.30L10.47 9.34Q10.62 9.49 10.48 9.63L10.48 9.63Q10.32 9.79 10.18 9.64L10.18 9.64Q10.06 9.52 9.97 9.43Q9.88 9.34 9.81 9.26L9.81 9.26Q9.65 9.05 9.50 8.83L9.50 8.83Q9.40 8.67 9.29 8.53Q9.19 8.39 9.09 8.23L9.09 8.23Q8.82 7.74 8.42 7.58L8.42 7.58Q7.98 7.42 7.79 7.70L7.79 7.70Q7.72 7.80 7.72 7.92L7.72 7.92L7.72 9.40L7.72 9.49Q7.72 9.69 7.51 9.70L7.51 9.70Q7.30 9.69 7.30 9.44L7.30 9.44Q7.30 9.28 7.31 9.12Q7.32 8.95 7.33 8.76L7.33 8.76Q7.33 8.63 7.32 8.49Q7.31 8.35 7.31 8.22L7.31 8.22Q7.31 8.09 7.32 7.96Q7.33 7.83 7.33 7.70L7.33 7.70Q7.33 7.40 7.31 7.07L7.31 7.07Q7.31 6.84 7.32 6.61Q7.33 6.38 7.32 6.14L7.32 6.14Q7.31 6.02 7.31 5.86Q7.31 5.71 7.36 5.58L7.36 5.58Q7.48 5.42 7.94 5.42L7.94 5.42L8.15 5.42Q8.39 5.42 8.64 5.44Q8.89 5.46 9.14 5.45L9.14 5.45Q9.71 5.42 10.04 5.67ZM8.11 7.15L8.11 7.15Q8.37 7.16 8.57 7.16Q8.77 7.16 8.91 7.14L8.91 7.14Q9.04 7.13 9.20 7.11Q9.36 7.09 9.55 7.05L9.55 7.05Q9.94 6.97 10.06 6.69L10.06 6.69Q10.10 6.59 10.09 6.47L10.09 6.47Q10.08 6.34 10.01 6.24Q9.95 6.14 9.85 6.07Q9.75 6.00 9.63 5.94Q9.52 5.89 9.41 5.87L9.41 5.87Q9.12 5.82 8.84 5.83Q8.55 5.84 8.26 5.82L8.26 5.82Q8.21 5.82 8.16 5.82Q8.11 5.82 8.05 5.82L8.05 5.82Q7.91 5.81 7.83 5.89L7.83 5.89Q7.77 5.96 7.79 6.08L7.79 6.08Q7.79 6.12 7.79 6.23L7.79 6.23Q7.79 6.33 7.77 6.43Q7.75 6.52 7.75 6.62L7.75 6.62Q7.70 6.88 7.81 7.01L7.81 7.01Q7.90 7.14 8.11 7.15ZM16.19 9.47L16.19 9.47Q16.19 9.65 16.04 9.69L16.04 9.69Q15.92 9.75 15.83 9.61L15.83 9.61Q15.78 9.54 15.75 9.49Q15.72 9.43 15.70 9.39L15.70 9.39Q15.60 9.18 15.52 9.03Q15.45 8.87 15.37 8.78L15.37 8.78Q15.21 8.55 15.01 8.49L15.01 8.49Q14.84 8.44 14.46 8.48L14.46 8.48Q14.25 8.50 14.05 8.51Q13.86 8.52 13.68 8.50L13.68 8.50Q13.28 8.48 13.09 8.76L13.09 8.76L13.08 8.78L13.07 8.79Q13.00 8.93 12.96 9.06Q12.91 9.19 12.85 9.32L12.85 9.32L12.71 9.54Q12.61 9.69 12.51 9.70L12.51 9.70Q12.46 9.72 12.37 9.65L12.37 9.65Q12.33 9.60 12.32 9.55Q12.31 9.49 12.32 9.43Q12.33 9.37 12.36 9.30Q12.38 9.24 12.40 9.19L12.40 9.19L12.56 8.85Q12.80 8.35 13.01 7.85Q13.22 7.34 13.45 6.83L13.45 6.83Q13.49 6.74 13.52 6.66Q13.56 6.58 13.59 6.51L13.59 6.51Q13.67 6.32 13.74 6.14Q13.82 5.95 13.91 5.76L13.91 5.76L14.01 5.61Q14.09 5.48 14.16 5.48L14.16 5.48Q14.23 5.46 14.33 5.59L14.33 5.59Q14.45 5.73 14.56 5.91Q14.66 6.10 14.74 6.26L14.74 6.26Q14.98 6.77 15.19 7.28Q15.39 7.79 15.63 8.28L15.63 8.28Q15.71 8.43 15.78 8.58Q15.85 8.74 15.93 8.88L15.93 8.88Q15.98 8.98 16.02 9.08Q16.06 9.17 16.11 9.27L16.11 9.27Q16.14 9.34 16.16 9.39Q16.18 9.44 16.19 9.47ZM14.83 7.56L14.83 7.56Q14.77 7.40 14.70 7.22Q14.64 7.05 14.55 6.88L14.55 6.88Q14.38 6.57 14.18 6.58L14.18 6.58Q14.11 6.58 14.05 6.62Q13.99 6.67 13.95 6.72Q13.91 6.78 13.88 6.85Q13.84 6.92 13.82 6.98L13.82 6.98Q13.75 7.18 13.68 7.40Q13.61 7.62 13.55 7.83L13.55 7.83Q13.50 7.98 13.56 8.05L13.56 8.05Q13.60 8.12 13.77 8.13L13.77 8.13Q13.92 8.14 14.04 8.15Q14.16 8.15 14.23 8.14L14.23 8.14Q14.38 8.14 14.63 8.10L14.63 8.10Q14.88 8.06 14.93 7.88L14.93 7.88Q14.95 7.77 14.90 7.69L14.90 7.69Q14.89 7.66 14.86 7.63Q14.84 7.59 14.83 7.56ZM20.79 5.86L20.79 5.87L20.81 5.89Q20.88 5.97 20.95 6.08Q21.01 6.19 21.07 6.33L21.07 6.33Q21.11 6.43 21.16 6.51Q21.21 6.60 21.25 6.69L21.25 6.69Q21.30 6.84 21.33 6.97Q21.36 7.09 21.36 7.20L21.36 7.20Q21.37 7.31 21.37 7.43Q21.36 7.56 21.34 7.72L21.34 7.72Q21.33 7.85 21.33 7.99Q21.33 8.12 21.30 8.26L21.30 8.26Q21.27 8.44 21.19 8.61Q21.12 8.78 21.03 8.94L21.03 8.94Q20.86 9.21 20.55 9.44L20.55 9.44L20.49 9.47Q20.42 9.52 20.36 9.53L20.36 9.53Q20.29 9.56 20.22 9.59Q20.15 9.61 20.09 9.63L20.09 9.63Q19.74 9.71 19.36 9.70Q18.98 9.69 18.63 9.69L18.63 9.69Q18.50 9.69 18.31 9.70Q18.13 9.70 18.02 9.63L18.02 9.63Q17.92 9.58 17.90 9.45L17.90 9.45Q17.89 9.42 17.89 9.33L17.89 9.33Q17.89 9.00 17.90 8.68Q17.90 8.35 17.92 8.03L17.92 8.03Q17.93 7.86 17.91 7.69Q17.89 7.51 17.89 7.34L17.89 7.34L17.89 6.63L17.89 6.06Q17.89 5.65 17.99 5.52L17.99 5.52Q18.10 5.41 18.33 5.41L18.33 5.41Q18.44 5.42 18.54 5.42Q18.64 5.41 18.72 5.41L18.72 5.41Q18.98 5.41 19.25 5.42Q19.52 5.43 19.80 5.45L19.80 5.45Q20.36 5.48 20.79 5.86L20.79 5.86ZM19.90 5.89L19.89 5.89L19.89 5.89Q19.79 5.87 19.65 5.87Q19.51 5.87 19.33 5.89L19.33 5.89Q18.99 5.91 18.81 5.88L18.81 5.88Q18.50 5.83 18.44 5.88L18.44 5.88Q18.33 5.95 18.33 6.17L18.33 6.17Q18.33 6.39 18.34 6.60Q18.35 6.82 18.33 7.02L18.33 7.02Q18.30 7.53 18.31 8.04Q18.32 8.54 18.32 9.04L18.32 9.04Q18.32 9.15 18.40 9.22L18.40 9.22Q18.48 9.30 18.72 9.26L18.72 9.26Q18.73 9.26 18.74 9.26Q18.75 9.26 18.76 9.26L18.76 9.26Q18.89 9.25 19.01 9.25Q19.13 9.26 19.24 9.26L19.24 9.26Q19.65 9.29 20.03 9.22L20.03 9.22Q20.41 9.14 20.62 8.72L20.62 8.72Q20.72 8.54 20.79 8.37Q20.86 8.20 20.90 8.02Q20.95 7.85 20.96 7.66Q20.97 7.48 20.95 7.26L20.95 7.26Q20.90 6.84 20.67 6.42L20.67 6.42Q20.56 6.22 20.36 6.09Q20.17 5.96 19.90 5.89L19.90 5.89ZM23.39 9.70L23.39 9.70Q23.17 9.67 23.17 9.44L23.17 9.44Q23.16 9.07 23.16 8.72Q23.16 8.36 23.16 7.99L23.16 7.99Q23.16 7.79 23.18 7.58L23.18 7.58Q23.19 7.43 23.19 7.30Q23.19 7.17 23.19 7.06L23.19 7.06Q23.18 6.99 23.17 6.90Q23.17 6.80 23.16 6.67L23.16 6.67Q23.16 6.60 23.16 6.51Q23.17 6.41 23.17 6.28L23.17 6.28Q23.18 6.19 23.18 6.11Q23.19 6.04 23.19 5.99L23.19 5.99L23.19 5.84L23.19 5.83L23.19 5.78Q23.17 5.61 23.19 5.54L23.19 5.54Q23.21 5.49 23.28 5.44L23.28 5.44Q23.55 5.30 23.61 5.61L23.61 5.61Q23.67 5.84 23.68 6.07Q23.69 6.29 23.67 6.51L23.67 6.51L23.67 6.51Q23.65 6.73 23.66 6.94Q23.67 7.15 23.65 7.36L23.65 7.36Q23.63 7.55 23.61 7.68Q23.60 7.82 23.59 7.92L23.59 7.92Q23.58 8.05 23.58 8.20Q23.58 8.35 23.58 8.51L23.58 8.51Q23.59 8.54 23.59 8.59Q23.59 8.63 23.59 8.70L23.59 8.70Q23.59 8.80 23.59 8.91Q23.59 9.02 23.60 9.13L23.60 9.13Q23.60 9.20 23.60 9.27Q23.60 9.33 23.60 9.40L23.60 9.40Q23.60 9.54 23.59 9.55L23.59 9.55Q23.56 9.68 23.39 9.70ZM29.38 9.47L29.38 9.47Q29.38 9.65 29.24 9.69L29.24 9.69Q29.11 9.75 29.02 9.61L29.02 9.61Q28.97 9.54 28.94 9.49Q28.91 9.43 28.89 9.39L28.89 9.39Q28.79 9.18 28.72 9.03Q28.64 8.87 28.57 8.78L28.57 8.78Q28.40 8.55 28.21 8.49L28.21 8.49Q28.03 8.44 27.66 8.48L27.66 8.48Q27.44 8.50 27.24 8.51Q27.05 8.52 26.87 8.50L26.87 8.50Q26.48 8.48 26.28 8.76L26.28 8.76L26.27 8.78L26.26 8.79Q26.20 8.93 26.15 9.06Q26.11 9.19 26.04 9.32L26.04 9.32L25.90 9.54Q25.81 9.69 25.70 9.70L25.70 9.70Q25.66 9.72 25.57 9.65L25.57 9.65Q25.53 9.60 25.52 9.55Q25.50 9.49 25.52 9.43Q25.53 9.37 25.55 9.30Q25.57 9.24 25.59 9.19L25.59 9.19L25.76 8.85Q26.00 8.35 26.21 7.85Q26.41 7.34 26.65 6.83L26.65 6.83Q26.69 6.74 26.72 6.66Q26.75 6.58 26.78 6.51L26.78 6.51Q26.86 6.32 26.93 6.14Q27.01 5.95 27.10 5.76L27.10 5.76L27.21 5.61Q27.28 5.48 27.35 5.48L27.35 5.48Q27.42 5.46 27.53 5.59L27.53 5.59Q27.64 5.73 27.75 5.91Q27.86 6.10 27.93 6.26L27.93 6.26Q28.17 6.77 28.38 7.28Q28.59 7.79 28.83 8.28L28.83 8.28Q28.90 8.43 28.97 8.58Q29.05 8.74 29.13 8.88L29.13 8.88Q29.17 8.98 29.21 9.08Q29.26 9.17 29.30 9.27L29.30 9.27Q29.33 9.34 29.35 9.39Q29.37 9.44 29.38 9.47ZM28.03 7.56L28.03 7.56Q27.96 7.40 27.89 7.22Q27.83 7.05 27.74 6.88L27.74 6.88Q27.58 6.57 27.38 6.58L27.38 6.58Q27.30 6.58 27.24 6.62Q27.19 6.67 27.15 6.72Q27.10 6.78 27.07 6.85Q27.04 6.92 27.02 6.98L27.02 6.98Q26.94 7.18 26.87 7.40Q26.80 7.62 26.74 7.83L26.74 7.83Q26.69 7.98 26.76 8.05L26.76 8.05Q26.80 8.12 26.97 8.13L26.97 8.13Q27.12 8.14 27.23 8.15Q27.35 8.15 27.43 8.14L27.43 8.14Q27.58 8.14 27.82 8.10L27.82 8.10Q28.08 8.06 28.12 7.88L28.12 7.88Q28.14 7.77 28.10 7.69L28.10 7.69Q28.08 7.66 28.06 7.63Q28.03 7.59 28.03 7.56ZM31.47 9.56L31.47 9.56Q31.45 9.68 31.26 9.70L31.26 9.70Q31.07 9.69 31.07 9.49L31.07 9.49Q31.07 8.96 31.05 8.41Q31.02 7.87 31.08 7.33L31.08 7.33L31.08 7.33Q31.08 7.17 31.08 7.02Q31.08 6.87 31.07 6.73L31.07 6.73L31.01 6.21Q30.99 5.99 31.08 5.74L31.08 5.74Q31.15 5.56 31.27 5.52L31.27 5.52Q31.36 5.50 31.47 5.62L31.47 5.62Q31.56 5.72 31.61 5.80L31.61 5.80Q31.70 5.93 31.79 6.03Q31.88 6.13 31.97 6.22L31.97 6.22Q32.05 6.31 32.13 6.37Q32.20 6.44 32.28 6.52L32.28 6.52Q32.35 6.59 32.43 6.70Q32.51 6.80 32.61 6.95L32.61 6.95L32.91 7.41Q32.94 7.46 32.98 7.52Q33.02 7.58 33.07 7.66L33.07 7.66L33.08 7.67Q33.22 7.86 33.38 8.03L33.38 8.03Q33.46 8.11 33.53 8.19Q33.61 8.26 33.69 8.33L33.69 8.33Q33.76 8.42 33.87 8.39L33.87 8.39Q34.02 8.35 34.02 8.07L34.02 8.07Q34.02 8.00 34.01 7.93Q34.00 7.85 34.00 7.78L34.00 7.78Q33.99 7.72 33.98 7.67Q33.97 7.62 33.97 7.56L33.97 7.56Q33.97 7.53 33.97 7.50Q33.97 7.46 33.97 7.42L33.97 7.42Q34.00 6.82 33.93 6.30L33.93 6.30Q33.92 6.27 33.92 6.19Q33.92 6.11 33.93 5.99L33.93 5.99Q33.94 5.84 33.97 5.67L33.97 5.67Q34.00 5.42 34.19 5.42L34.19 5.42Q34.41 5.42 34.41 5.68L34.41 5.68Q34.42 5.89 34.43 6.11Q34.44 6.32 34.44 6.54L34.44 6.54Q34.45 6.85 34.43 7.16Q34.41 7.48 34.42 7.79L34.42 7.79Q34.43 8.00 34.43 8.21Q34.43 8.42 34.42 8.62L34.42 8.62Q34.42 8.74 34.42 8.85Q34.43 8.96 34.43 9.06L34.43 9.06L34.43 9.34Q34.42 9.38 34.42 9.42Q34.41 9.46 34.41 9.50L34.41 9.50Q34.41 9.50 34.41 9.51L34.41 9.51Q34.41 9.52 34.40 9.52L34.40 9.52Q34.32 9.62 34.17 9.62L34.17 9.62Q33.98 9.63 33.89 9.50L33.89 9.50Q33.78 9.37 33.70 9.22Q33.61 9.07 33.51 8.93L33.51 8.93Q33.39 8.76 33.24 8.58Q33.09 8.39 32.92 8.18L32.92 8.18Q32.85 8.10 32.72 7.90L32.72 7.90L32.48 7.52Q32.40 7.38 32.31 7.24Q32.22 7.10 32.12 6.97L32.12 6.97Q32.08 6.92 32.03 6.87Q31.99 6.81 31.93 6.77Q31.88 6.73 31.81 6.71Q31.74 6.69 31.67 6.71L31.67 6.71Q31.49 6.76 31.50 7.08L31.50 7.08Q31.51 7.31 31.51 7.52Q31.51 7.72 31.53 7.90L31.53 7.90Q31.54 8.05 31.52 8.19Q31.51 8.33 31.51 8.47L31.51 8.47L31.51 9.00Q31.51 9.17 31.50 9.31Q31.49 9.45 31.47 9.56ZM39.61 5.75L39.61 5.75Q39.52 5.86 39.30 5.84L39.30 5.84L38.96 5.82Q38.86 5.82 38.76 5.81Q38.66 5.80 38.56 5.80L38.56 5.80Q38.36 5.80 38.26 5.89L38.26 5.89Q38.19 5.98 38.19 6.19L38.19 6.19Q38.19 6.28 38.20 6.37Q38.21 6.47 38.21 6.56L38.21 6.56Q38.21 6.79 38.22 6.96Q38.22 7.12 38.22 7.24L38.22 7.24Q38.22 7.59 38.18 7.94L38.18 7.94Q38.16 8.10 38.18 8.26Q38.20 8.43 38.21 8.59L38.21 8.59Q38.21 8.76 38.22 8.89Q38.22 9.02 38.22 9.11L38.22 9.11Q38.22 9.15 38.22 9.20Q38.22 9.26 38.21 9.35L38.21 9.35Q38.20 9.54 38.19 9.58L38.19 9.58Q38.10 9.73 37.95 9.69L37.95 9.69Q37.78 9.65 37.78 9.43L37.78 9.43Q37.77 9.22 37.79 9.01Q37.80 8.80 37.82 8.60L37.82 8.60Q37.84 8.36 37.81 8.11Q37.79 7.87 37.79 7.62L37.79 7.62Q37.79 7.40 37.81 7.17Q37.82 6.94 37.83 6.71L37.83 6.71Q37.83 6.27 37.69 6.08L37.69 6.08Q37.61 5.99 37.51 5.94Q37.40 5.89 37.27 5.87L37.27 5.87Q37.14 5.86 37.03 5.85Q36.91 5.84 36.80 5.84L36.80 5.84Q36.72 5.84 36.60 5.84Q36.47 5.84 36.40 5.80L36.40 5.80Q36.35 5.77 36.33 5.67L36.33 5.67Q36.32 5.59 36.35 5.54L36.35 5.54Q36.40 5.46 36.59 5.43L36.59 5.43Q36.61 5.43 36.67 5.43L36.67 5.43Q36.96 5.42 37.23 5.45Q37.50 5.48 37.78 5.46L37.78 5.46Q37.90 5.46 38.01 5.44Q38.12 5.43 38.25 5.43L38.25 5.43Q38.47 5.43 38.70 5.43Q38.93 5.43 39.16 5.42L39.16 5.42Q39.27 5.42 39.36 5.43Q39.44 5.43 39.50 5.46L39.50 5.46Q39.72 5.61 39.61 5.75ZM46.85 5.86L46.85 5.87L46.87 5.89Q46.94 5.97 47.01 6.08Q47.07 6.19 47.13 6.33L47.13 6.33Q47.17 6.43 47.22 6.51Q47.27 6.60 47.30 6.69L47.30 6.69Q47.36 6.84 47.39 6.97Q47.41 7.09 47.42 7.20L47.42 7.20Q47.43 7.31 47.42 7.43Q47.42 7.56 47.40 7.72L47.40 7.72Q47.39 7.85 47.39 7.99Q47.39 8.12 47.36 8.26L47.36 8.26Q47.33 8.44 47.25 8.61Q47.18 8.78 47.09 8.94L47.09 8.94Q46.92 9.21 46.61 9.44L46.61 9.44L46.55 9.47Q46.48 9.52 46.42 9.53L46.42 9.53Q46.35 9.56 46.28 9.59Q46.21 9.61 46.15 9.63L46.15 9.63Q45.79 9.71 45.42 9.70Q45.04 9.69 44.69 9.69L44.69 9.69Q44.56 9.69 44.37 9.70Q44.19 9.70 44.08 9.63L44.08 9.63Q43.98 9.58 43.96 9.45L43.96 9.45Q43.95 9.42 43.95 9.33L43.95 9.33Q43.95 9.00 43.96 8.68Q43.96 8.35 43.98 8.03L43.98 8.03Q43.99 7.86 43.97 7.69Q43.95 7.51 43.95 7.34L43.95 7.34L43.95 6.63L43.95 6.06Q43.95 5.65 44.05 5.52L44.05 5.52Q44.16 5.41 44.39 5.41L44.39 5.41Q44.50 5.42 44.60 5.42Q44.70 5.41 44.78 5.41L44.78 5.41Q45.04 5.41 45.31 5.42Q45.58 5.43 45.86 5.45L45.86 5.45Q46.42 5.48 46.85 5.86L46.85 5.86ZM45.96 5.89L45.95 5.89L45.94 5.89Q45.85 5.87 45.71 5.87Q45.57 5.87 45.38 5.89L45.38 5.89Q45.05 5.91 44.86 5.88L44.86 5.88Q44.56 5.83 44.50 5.88L44.50 5.88Q44.39 5.95 44.39 6.17L44.39 6.17Q44.39 6.39 44.40 6.60Q44.41 6.82 44.39 7.02L44.39 7.02Q44.36 7.53 44.37 8.04Q44.38 8.54 44.38 9.04L44.38 9.04Q44.38 9.15 44.46 9.22L44.46 9.22Q44.54 9.30 44.78 9.26L44.78 9.26Q44.79 9.26 44.80 9.26Q44.81 9.26 44.82 9.26L44.82 9.26Q44.95 9.25 45.07 9.25Q45.19 9.26 45.30 9.26L45.30 9.26Q45.71 9.29 46.09 9.22L46.09 9.22Q46.47 9.14 46.68 8.72L46.68 8.72Q46.78 8.54 46.85 8.37Q46.92 8.20 46.96 8.02Q47.00 7.85 47.01 7.66Q47.02 7.48 47.00 7.26L47.00 7.26Q46.96 6.84 46.73 6.42L46.73 6.42Q46.61 6.22 46.42 6.09Q46.22 5.96 45.96 5.89L45.96 5.89ZM49.44 9.70L49.44 9.70Q49.23 9.67 49.23 9.44L49.23 9.44Q49.22 9.07 49.22 8.72Q49.22 8.36 49.22 7.99L49.22 7.99Q49.22 7.79 49.24 7.58L49.24 7.58Q49.25 7.43 49.25 7.30Q49.25 7.17 49.25 7.06L49.25 7.06Q49.24 6.99 49.23 6.90Q49.23 6.80 49.22 6.67L49.22 6.67Q49.22 6.60 49.22 6.51Q49.23 6.41 49.23 6.28L49.23 6.28Q49.24 6.19 49.24 6.11Q49.25 6.04 49.25 5.99L49.25 5.99L49.25 5.84L49.25 5.83L49.25 5.78Q49.23 5.61 49.25 5.54L49.25 5.54Q49.27 5.49 49.34 5.44L49.34 5.44Q49.61 5.30 49.67 5.61L49.67 5.61Q49.72 5.84 49.73 6.07Q49.75 6.29 49.72 6.51L49.72 6.51L49.72 6.51Q49.70 6.73 49.71 6.94Q49.72 7.15 49.70 7.36L49.70 7.36Q49.68 7.55 49.67 7.68Q49.66 7.82 49.65 7.92L49.65 7.92Q49.64 8.05 49.64 8.20Q49.64 8.35 49.64 8.51L49.64 8.51Q49.65 8.54 49.65 8.59Q49.65 8.63 49.65 8.70L49.65 8.70Q49.65 8.80 49.65 8.91Q49.65 9.02 49.66 9.13L49.66 9.13Q49.66 9.20 49.66 9.27Q49.66 9.33 49.66 9.40L49.66 9.40Q49.66 9.54 49.65 9.55L49.65 9.55Q49.62 9.68 49.44 9.70ZM55.16 9.26L55.16 9.26Q54.65 9.71 53.94 9.75L53.94 9.75Q53.25 9.78 52.64 9.53L52.64 9.53L52.63 9.52L52.62 9.52Q52.51 9.49 52.32 9.33L52.32 9.33Q52.14 9.17 52.08 9.08L52.08 9.08Q51.97 8.95 51.90 8.78Q51.82 8.61 51.73 8.45L51.73 8.45Q51.58 8.16 51.57 7.95L51.57 7.95Q51.56 7.85 51.57 7.71Q51.57 7.58 51.58 7.41L51.58 7.41Q51.65 6.66 52.06 6.02L52.06 6.02Q52.09 5.97 52.19 5.89Q52.28 5.81 52.43 5.73L52.43 5.73Q52.75 5.56 52.96 5.49L52.96 5.49Q53.11 5.44 53.29 5.42L53.29 5.42Q53.70 5.37 54.13 5.42Q54.56 5.48 54.93 5.69L54.93 5.69Q54.98 5.72 55.05 5.77Q55.11 5.82 55.20 5.89L55.20 5.89Q55.37 6.02 55.39 6.15L55.39 6.15Q55.40 6.21 55.35 6.27L55.35 6.27Q55.28 6.36 55.21 6.36L55.21 6.36Q55.13 6.36 55.03 6.30Q54.93 6.23 54.88 6.19L54.88 6.19Q54.76 6.12 54.69 6.07Q54.62 6.02 54.61 6.01L54.61 6.01Q54.26 5.82 53.76 5.82L53.76 5.82Q53.64 5.82 53.50 5.83Q53.37 5.84 53.21 5.87L53.21 5.87L53.20 5.87L53.18 5.88Q52.32 6.13 52.06 7.06L52.06 7.06Q51.97 7.40 52.02 7.70Q52.07 8.00 52.15 8.31L52.15 8.31Q52.28 8.79 52.58 9.00Q52.88 9.21 53.34 9.30L53.34 9.30L53.35 9.30Q53.47 9.32 53.58 9.32Q53.68 9.32 53.79 9.30Q53.89 9.28 53.99 9.26Q54.10 9.24 54.22 9.23L54.22 9.23Q54.71 9.17 54.91 8.88L54.91 8.88L54.91 8.87Q55.06 8.64 55.04 8.22L55.04 8.22Q55.03 8.00 54.88 7.87L54.88 7.87Q54.69 7.70 54.37 7.71L54.37 7.71L53.82 7.73Q53.73 7.74 53.66 7.74Q53.59 7.75 53.54 7.75L53.54 7.75Q53.28 7.71 53.31 7.51L53.31 7.51Q53.33 7.38 53.50 7.33L53.50 7.33Q53.81 7.31 54.11 7.33Q54.41 7.35 54.72 7.33L54.72 7.33L55.02 7.31Q55.21 7.29 55.31 7.38L55.31 7.38Q55.42 7.46 55.43 7.66L55.43 7.66Q55.45 7.87 55.45 7.98L55.45 7.98Q55.45 8.16 55.45 8.36Q55.46 8.57 55.43 8.74L55.43 8.74Q55.38 9.00 55.16 9.26ZM57.44 9.70L57.44 9.70Q57.22 9.67 57.22 9.44L57.22 9.44Q57.21 9.07 57.21 8.72Q57.21 8.36 57.21 7.99L57.21 7.99Q57.21 7.79 57.23 7.58L57.23 7.58Q57.24 7.43 57.24 7.30Q57.24 7.17 57.24 7.06L57.24 7.06Q57.23 6.99 57.22 6.90Q57.22 6.80 57.21 6.67L57.21 6.67Q57.21 6.60 57.21 6.51Q57.22 6.41 57.22 6.28L57.22 6.28Q57.23 6.19 57.23 6.11Q57.24 6.04 57.24 5.99L57.24 5.99L57.24 5.84L57.24 5.83L57.24 5.78Q57.22 5.61 57.24 5.54L57.24 5.54Q57.26 5.49 57.33 5.44L57.33 5.44Q57.60 5.30 57.66 5.61L57.66 5.61Q57.72 5.84 57.73 6.07Q57.74 6.29 57.72 6.51L57.72 6.51L57.72 6.51Q57.70 6.73 57.71 6.94Q57.72 7.15 57.70 7.36L57.70 7.36Q57.67 7.55 57.66 7.68Q57.65 7.82 57.64 7.92L57.64 7.92Q57.63 8.05 57.63 8.20Q57.63 8.35 57.63 8.51L57.63 8.51Q57.64 8.54 57.64 8.59Q57.64 8.63 57.64 8.70L57.64 8.70Q57.64 8.80 57.64 8.91Q57.64 9.02 57.65 9.13L57.65 9.13Q57.65 9.20 57.65 9.27Q57.65 9.33 57.65 9.40L57.65 9.40Q57.65 9.54 57.64 9.55L57.64 9.55Q57.61 9.68 57.44 9.70ZM62.84 5.75L62.84 5.75Q62.75 5.86 62.53 5.84L62.53 5.84L62.19 5.82Q62.08 5.82 61.99 5.81Q61.89 5.80 61.79 5.80L61.79 5.80Q61.58 5.80 61.49 5.89L61.49 5.89Q61.41 5.98 61.41 6.19L61.41 6.19Q61.41 6.28 61.42 6.37Q61.43 6.47 61.43 6.56L61.43 6.56Q61.44 6.79 61.44 6.96Q61.45 7.12 61.45 7.24L61.45 7.24Q61.45 7.59 61.41 7.94L61.41 7.94Q61.39 8.10 61.41 8.26Q61.43 8.43 61.43 8.59L61.43 8.59Q61.44 8.76 61.44 8.89Q61.45 9.02 61.45 9.11L61.45 9.11Q61.45 9.15 61.45 9.20Q61.45 9.26 61.44 9.35L61.44 9.35Q61.43 9.54 61.41 9.58L61.41 9.58Q61.33 9.73 61.18 9.69L61.18 9.69Q61.00 9.65 61.00 9.43L61.00 9.43Q61.00 9.22 61.01 9.01Q61.03 8.80 61.04 8.60L61.04 8.60Q61.07 8.36 61.04 8.11Q61.02 7.87 61.02 7.62L61.02 7.62Q61.02 7.40 61.03 7.17Q61.05 6.94 61.06 6.71L61.06 6.71Q61.06 6.27 60.92 6.08L60.92 6.08Q60.84 5.99 60.73 5.94Q60.63 5.89 60.50 5.87L60.50 5.87Q60.37 5.86 60.26 5.85Q60.14 5.84 60.03 5.84L60.03 5.84Q59.95 5.84 59.82 5.84Q59.70 5.84 59.63 5.80L59.63 5.80Q59.58 5.77 59.56 5.67L59.56 5.67Q59.55 5.59 59.58 5.54L59.58 5.54Q59.63 5.46 59.82 5.43L59.82 5.43Q59.84 5.43 59.90 5.43L59.90 5.43Q60.18 5.42 60.45 5.45Q60.72 5.48 61.01 5.46L61.01 5.46Q61.13 5.46 61.24 5.44Q61.35 5.43 61.48 5.43L61.48 5.43Q61.70 5.43 61.93 5.43Q62.16 5.43 62.38 5.42L62.38 5.42Q62.50 5.42 62.59 5.43Q62.67 5.43 62.73 5.46L62.73 5.46Q62.95 5.61 62.84 5.75ZM67.54 9.08L67.54 9.08Q67.42 9.23 67.32 9.34Q67.21 9.45 67.09 9.53Q66.98 9.60 66.84 9.66Q66.70 9.71 66.52 9.73L66.52 9.73Q66.43 9.74 66.34 9.74Q66.24 9.75 66.13 9.73L66.13 9.73Q65.98 9.72 65.84 9.72Q65.69 9.72 65.54 9.69L65.54 9.69Q65.21 9.61 65.00 9.46Q64.78 9.31 64.66 9.07L64.66 9.07Q64.51 8.74 64.83 8.73L64.83 8.73Q64.89 8.73 64.96 8.81Q65.03 8.89 65.07 8.93L65.07 8.93Q65.21 9.07 65.24 9.08L65.24 9.08L65.24 9.08L65.24 9.09Q65.58 9.32 66.13 9.32L66.13 9.32L66.14 9.32L66.14 9.32Q66.38 9.32 66.74 9.23L66.74 9.23Q67.09 9.14 67.21 8.87L67.21 8.87Q67.27 8.70 67.21 8.51L67.21 8.51L67.21 8.50Q67.04 8.14 66.55 8.02L66.55 8.02L65.71 7.80Q65.53 7.76 65.28 7.63L65.28 7.63Q65.15 7.56 65.05 7.51Q64.96 7.45 64.89 7.40L64.89 7.40Q64.61 7.19 64.57 6.99L64.57 6.99Q64.56 6.95 64.56 6.89Q64.56 6.83 64.56 6.74L64.56 6.74Q64.56 6.64 64.57 6.55Q64.59 6.46 64.60 6.36L64.60 6.36Q64.64 6.04 64.87 5.80L64.87 5.80Q64.97 5.69 65.12 5.62Q65.26 5.55 65.40 5.49L65.40 5.49Q65.59 5.40 65.80 5.40Q66.01 5.39 66.21 5.40L66.21 5.40Q66.88 5.42 67.26 5.87L67.26 5.87Q67.43 6.08 67.39 6.22L67.39 6.22L67.34 6.26Q67.23 6.32 67.08 6.19L67.08 6.19Q67.04 6.16 67.01 6.13Q66.97 6.09 66.94 6.06L66.94 6.06Q66.90 6.02 66.85 5.98Q66.79 5.95 66.73 5.91L66.73 5.91L66.71 5.90L66.69 5.90Q66.44 5.82 66.18 5.81Q65.91 5.80 65.63 5.86L65.63 5.86Q65.30 5.93 65.12 6.14Q64.94 6.34 64.94 6.67L64.94 6.67L64.94 6.69L64.95 6.70Q64.98 7.12 65.60 7.30L65.60 7.30L65.80 7.36L66.31 7.53Q66.42 7.57 66.54 7.62Q66.66 7.67 66.79 7.72L66.79 7.72Q66.98 7.81 67.14 7.90Q67.31 7.98 67.44 8.07L67.44 8.07Q67.54 8.13 67.59 8.22Q67.64 8.31 67.66 8.41Q67.68 8.51 67.67 8.62Q67.67 8.73 67.65 8.82L67.65 8.82Q67.63 8.89 67.60 8.96Q67.57 9.03 67.54 9.08Z"></path></g><!----><!----></svg>