<svg data-v-423bf9ae="" xmlns="http://www.w3.org/2000/svg" viewBox="0 0 398 90" class="iconLeft"><!----><!----><!----><g data-v-423bf9ae="" id="0c597c47-c327-448f-961e-59224d68ff53" fill="#FCE4EC" transform="matrix(5.39083552408516,0,0,5.39083552408516,60.29688025514963,-2.3584903033686757)"><path d="M3.53 8.92C5.25 9.46 5.85 10.05 5.85 11.44C5.85 13.19 5.07 13.71 3.61 13.71C2.28 13.71 1.47 13.06 1.43 11.79L0.74 11.79C0.76 13.37 1.81 14.35 3.60 14.35C5.40 14.35 6.57 13.62 6.57 11.42C6.57 9.80 5.74 8.92 3.74 8.32C2.23 7.85 1.64 7.34 1.64 6.02C1.64 4.56 2.39 3.99 3.72 3.99C4.82 3.99 5.77 4.48 5.87 5.80L6.57 5.80C6.44 3.93 5.10 3.35 3.72 3.35C1.92 3.35 0.94 4.27 0.94 6.03C0.94 7.71 1.81 8.39 3.53 8.92ZM10.39 13.62C9.23 13.64 9.03 13.45 9.03 11.96L9.03 3.37L8.34 3.37L8.34 11.90C8.34 13.71 8.64 14.39 10.39 14.21ZM16.00 12.05C15.97 13.17 15.53 13.73 14.22 13.73C12.77 13.73 12.29 12.99 12.29 11.31L12.29 10.18L16.73 10.18L16.73 8.81C16.73 6.75 15.97 5.81 14.20 5.81C12.46 5.81 11.61 6.68 11.61 8.92L11.61 11.30C11.61 13.52 12.42 14.35 14.24 14.35C15.90 14.35 16.65 13.59 16.66 12.05ZM14.20 6.43C15.67 6.43 16.06 7.20 16.06 8.81L16.06 9.59L12.29 9.59L12.29 8.88C12.29 7.10 12.77 6.43 14.20 6.43ZM22.81 12.05C22.78 13.17 22.33 13.73 21.03 13.73C19.57 13.73 19.10 12.99 19.10 11.31L19.10 10.18L23.53 10.18L23.53 8.81C23.53 6.75 22.78 5.81 21.00 5.81C19.26 5.81 18.41 6.68 18.41 8.92L18.41 11.30C18.41 13.52 19.22 14.35 21.04 14.35C22.71 14.35 23.45 13.59 23.46 12.05ZM21.00 6.43C22.47 6.43 22.86 7.20 22.86 8.81L22.86 9.59L19.10 9.59L19.10 8.88C19.10 7.10 19.57 6.43 21.00 6.43ZM30.60 5.98L29.76 5.98L27.20 9.42L26.17 9.42L26.17 3.37L25.48 3.37L25.48 14.18L26.17 14.18L26.17 10.04L27.19 10.04L30.27 14.18L31.15 14.18L27.78 9.72ZM36.04 3.51L36.04 14.18L36.74 14.18L36.74 4.70L41.13 14.18L41.96 14.18L41.96 3.51L41.27 3.51L41.27 13.01L36.92 3.51ZM49.13 14.18L49.13 8.43C49.13 6.55 48.26 5.81 46.69 5.81C44.94 5.81 44.18 6.65 44.18 8.37L44.81 8.37C44.81 6.87 45.51 6.43 46.68 6.43C47.92 6.43 48.45 7.03 48.45 8.43L48.45 9.80C48.02 9.73 47.38 9.67 46.97 9.67C44.84 9.67 43.92 10.49 43.92 12.07C43.92 13.64 44.84 14.35 46.20 14.35C47.21 14.35 48.03 13.93 48.47 13.16L48.50 14.18ZM48.45 11.56C48.45 13.03 47.47 13.75 46.33 13.75C45.18 13.75 44.63 13.15 44.63 12.04C44.63 10.86 45.23 10.26 46.93 10.26C47.32 10.26 48.01 10.32 48.45 10.39ZM51.90 5.98L51.21 5.98L51.21 14.18L51.90 14.18ZM51.91 3.22L51.20 3.22L51.20 4.14L51.91 4.14ZM56.13 13.62C54.96 13.64 54.77 13.45 54.77 11.96L54.77 3.37L54.08 3.37L54.08 11.90C54.08 13.71 54.38 14.39 56.13 14.21ZM59.88 9.56C58.76 9.34 58.13 9.09 58.13 7.91C58.13 6.99 58.65 6.41 59.92 6.41C61.22 6.41 61.68 6.96 61.73 7.99L62.38 7.99C62.38 6.61 61.64 5.81 59.92 5.81C58.23 5.81 57.47 6.69 57.47 7.94C57.47 9.55 58.41 9.93 59.67 10.16C60.90 10.40 61.81 10.65 61.81 12.00C61.81 13.17 61.14 13.75 59.86 13.75C58.42 13.75 57.90 13.09 57.90 12.01L57.25 12.01C57.25 13.62 58.13 14.35 59.86 14.35C61.66 14.35 62.48 13.44 62.48 11.96C62.48 10.16 61.19 9.83 59.88 9.56Z"></path></g><!----><g data-v-423bf9ae="" id="45f3c4f4-4c56-4100-8682-7b9677656332" transform="matrix(1.0246263384266667,0,0,1.0246263384266667,-26.79003954417115,-5.14697263999556)" stroke="none" fill="#FCE4EC"><path d="M68.766 21.575c-.076-.334-.142-.614-.18-.828-.058-.316-.106-1.084-.163-1.974-.182-2.877-.456-7.225-1.581-9.289-1.357-2.49-2.74-3.971-5.494-3.39-.63.132-1.55.107-2.443.054-.435-.025-.868-.051-1.287-.051-1.093 0-2.461.16-3.34 1.405-.302.427-.52.836-.707 1.234-.433-.234-1-.399-1.73-.476-.54-.057-.973-.083-1.362-.083-1.612 0-2.686.467-4.104 1.784a4.242 4.242 0 00-1.123 1.743c-1.22-1.277-2.97-2.315-4.9-1.991-2.104.351-3.079 1.978-3.861 3.286-.117.195-.23.385-.344.563-.552.868-.679 2.529-.607 4.274a4.649 4.649 0 00-1.9-.277c-1.508.089-2.248.682-2.862 1.458a.502.502 0 00-.434.313c-.017.044-.098.259-.215.58-.115.165-.229.33-.362.507-.354.471-.49 1.18-.5 1.988-.738 2.261-1.6 5.265-1.693 7.227-.068 1.429-.286 3.904-.518 6.525-.318 3.607-.679 7.696-.772 10.393-.106 3.077.534 6.719 1.049 9.646.273 1.551.508 2.89.564 3.771.068 1.083-.108 3.822-.293 6.723-.251 3.93-.537 8.384-.351 10.522.037.42.069.875.103 1.357.267 3.744.67 9.402 4.191 13.806.749.936 1.999 1.43 3.616 1.43 4.168 0 10.424-3.217 14.551-7.482 2.108-2.179 4.593-5.58 4.467-9.418-.117-3.566-.359-6.326-.555-8.543-.298-3.391-.478-5.437.096-6.977a.907.907 0 01.151-.292c.28-.28.629-.459 1.069-.686 1.611-.828 4.045-2.081 7.914-10.097.372-.637.768-1.268 1.158-1.891 1.424-2.273 2.77-4.421 2.77-6.442 0-.84-.124-2.171-.3-3.725.394-1.148 1.964-5.773 2.7-8.717.735-2.942-.015-6.206-.418-7.96zm-.554 7.717c-.493 1.976-1.37 4.725-2.005 6.644l-.104-.849c-.268-2.167-.544-4.409-.65-5.95-.161-2.335-1.133-4.009-2.398-5.412.872-.018 1.891-.046 2.889-.093a.501.501 0 00-.023-.999c-.1 0-.404 0-.741-.514-.97-1.479-1.037-5.396-.129-7.484a.498.498 0 00-.681-.646l-.472.24c-.673.345-.673.345-1.601.396l-.634.037a.498.498 0 00-.401.249c-.698 1.206-1.728 1.938-2.484 2.35-.404-.687-.85-1.286-1.317-1.701a4.574 4.574 0 00-.418-.458c.105-.644.217-2.171-.967-2.817a2.661 2.661 0 00-.582-.233 3.01 3.01 0 00-1.012-.072 3.43 3.43 0 00-1.079.28c.169-.422.296-.85.424-1.291.041-.14.085-.283.128-.425.048-.16.103-.321.158-.484.067-.198.142-.398.228-.603.187-.443.419-.897.756-1.375.492-.697 1.224-.982 2.523-.982.4 0 .813.025 1.229.049.984.058 1.981.079 2.708-.074 1.975-.417 2.944.203 4.409 2.89 1.02 1.87 1.297 6.254 1.462 8.874.063.996.108 1.716.177 2.09.041.225.108.52.189.872.382 1.67 1.097 4.782.418 7.491zm-5.047 18.596c-.37.589-.74 1.188-1.096 1.79l-.018-.021c-.032.067-.054.127-.086.195-3.73 7.736-5.988 8.896-7.482 9.665-.478.245-.928.477-1.322.871-.152.154-.276.367-.38.648-.651 1.75-.464 3.881-.153 7.411.194 2.206.436 4.95.551 8.489.115 3.487-2.213 6.65-4.186 8.689-3.96 4.092-9.907 7.178-13.833 7.178-1.321 0-2.275-.355-2.835-1.055-3.326-4.16-3.701-9.415-3.974-13.252-.035-.488-.067-.947-.104-1.372-.18-2.064.103-6.479.353-10.373.196-3.06.365-5.702.293-6.849-.059-.937-.299-2.301-.577-3.882-.506-2.881-1.137-6.466-1.035-9.438.093-2.67.452-6.745.769-10.339.232-2.631.451-5.117.521-6.565.061-1.266.478-3.043.967-4.749.437 2.192 1.233 4.265 1.248 4.302.419 1.08.881 2.397 1.327 3.672.448 1.279.87 2.488 1.211 3.339.487 1.215 1.359 2.434 2.408 2.991.171.523.36.952.549 1.117.295.258.67.522 1.218.522.371 0 .776-.121 1.239-.369 1.029-.551 1.081-1.498.705-2.743.011-.018.024-.034.036-.052.184.211.387.391.636.498.482.207.918.356 1.328.467.047.173.095.342.141.481.289.866 1.088 1.383 2.137 1.383.441 0 .902-.091 1.334-.264 1.139-.455 1.433-1.955 1.323-2.961.312.017.616.02.879.02 1.157 0 1.779-1.24 1.981-2.238a5.84 5.84 0 001.685-2.361c.413-1.062.452-1.944.49-2.797.045-1.015.087-1.973.707-3.337.238-.524.474-1 .704-1.459.141.818.395 1.617.827 2.351 1.966 3.342 1.927 3.52 1.668 4.675-.05.223-.106.477-.16.783-.064.363-.214.878-.388 1.476-.479 1.646-1.134 3.901-1.076 6.361a.505.505 0 00.512.488.493.493 0 00.315-.13.492.492 0 00.173-.381c-.055-2.306.576-4.475 1.036-6.059.182-.625.339-1.165.412-1.581.051-.289.104-.528.152-.738.335-1.502.25-1.945-1.783-5.4-.593-1.008-.81-2.178-.814-3.356-.001-.078.003-.155.004-.233.002-.101.001-.201.006-.302.009-.175.024-.348.041-.522.023-.247.053-.49.09-.732a16.126 16.126 0 01.55-2.345l.032-.105c.056-.176.111-.344.167-.506l.05-.142a13.347 13.347 0 00.275.619c.253.516.557 1.038.838 1.508l.149.25c.21.349.39.648.494.857.15.299.407.584.719.825.228.176.484.326.75.442.351.153.715.246 1.05.246.154 0 .299-.02.431-.057a.935.935 0 00.48-.35c.106-.136.195-.288.255-.462.029-.083.048-.171.068-.258.344.293.681.589 1.008.888.179.163.353.329.522.496 1.465 1.433 2.61 3.049 2.776 5.46.108 1.568.387 3.823.655 6.003.1.81.2 1.623.292 2.407l.07.605.062.561c.146 1.328.248 2.479.248 3.194 0 1.056-.475 2.223-1.147 3.458a37.57 37.57 0 01-1.026 1.743c-.145.236-.293.472-.442.711zM32.004 19.161c.4-.35.885-.556 1.692-.604a3.796 3.796 0 011.908.381 31.303 31.303 0 00.191 1.731c.086.629.183 1.214.278 1.71.221 1.146.358 2.215.491 3.249.23 1.794.43 3.344.988 4.699.29.703.446 1.798.613 2.958.086.603.177 1.208.287 1.785-.058-.166-.076-.229-.077-.231a.266.266 0 00-.026-.06c-.019-.03-.46-.75-1.312-.75a1.68 1.68 0 00-.556.1c-.984.348-1.52 1.122-1.434 2.071.018.196.111.754.253 1.404a5.994 5.994 0 01-1.05-1.733c-.333-.831-.752-2.029-1.196-3.298-.449-1.283-.913-2.609-1.339-3.704-.697-1.791-1.424-4.466-1.465-6.257-.016-.704.071-1.274.312-1.596.167-.223.315-.435.458-.639l.047-.066.17-.242a9.67 9.67 0 01.339-.459c.139-.172.278-.318.428-.449zm4.984-5.062c.118-.186.236-.383.358-.586.712-1.189 1.52-2.538 3.168-2.813.188-.031.373-.046.557-.046 1.568 0 2.97 1.072 3.881 2.212-.049.261-.092.523-.133.783-.125.8-.256 1.628-.612 2.385-.518 1.101-.98 2.82-1.284 4.566-.029.165-.055.33-.081.494-.026.166-.05.33-.072.494-.197 1.421-.276 2.786-.178 3.768.057.569.05 1.406.043 2.375-.01 1.312-.019 2.751.11 4.061-.6.14-1.682.455-2.196 1.016-.029.031-.03.074-.04.114-.006.025-.027.046-.025.073.033.459.101 1.042.188 1.667.131.946.311 1.985.503 2.89a11.553 11.553 0 01-.667-.263c-.194-.083-.357-.272-.499-.529a3.7 3.7 0 01-.263-.631 8.49 8.49 0 01-.221-.82c-.154-.69-.267-1.46-.368-2.164-.175-1.223-.341-2.378-.678-3.197-.508-1.233-.7-2.722-.921-4.446-.135-1.049-.274-2.134-.5-3.31a31.158 31.158 0 01-.496-3.852c-.123-1.993.018-3.6.426-4.241zm14.746-4.844c.775.082 1.215.25 1.46.396-.125.358-.234.707-.33 1.035-.23.792-.429 1.476-.886 2.135l-.137.197c-1.263 1.82-2.695 3.883-1.785 5.098l.004.005c.144.294.415.538.648.702.437.31 1.071.574 1.685.634.322.078.628.126.902.154a16.11 16.11 0 00-.527 2.57c-.02.172-.029.347-.042.521-.012.157-.025.313-.031.471a51.514 51.514 0 00-1.486 3.013c-.701 1.541-.751 2.691-.796 3.707-.036.807-.069 1.57-.422 2.479a4.942 4.942 0 01-.701 1.231 155.325 155.325 0 00-.284-4.017c-.146-.511-.733-1.476-1.915-1.476-.074 0-.157.025-.234.033-.148.014-.294.021-.451.063l-.048.013a26.33 26.33 0 00-.501.138c-1.319.38-1.562.635-1.747 1.802-.058.369-.085.924-.096 1.552l-.004.293-.001.321c0 .327.001.661.005.996a9.482 9.482 0 01-.221-1.17c-.011-.088-.02-.179-.03-.269-.008-.079-.018-.157-.025-.237-.122-1.292-.112-2.732-.103-3.907.008-.998.014-1.86-.048-2.482-.09-.906-.013-2.193.174-3.538a31.069 31.069 0 01.155-.988c.289-1.645.72-3.26 1.196-4.271.212-.451.352-.904.457-1.356.102-.437.171-.872.238-1.3l.057-.355c.046-.281.096-.551.157-.811.172-.738.441-1.395 1.033-1.944 1.236-1.147 2.068-1.516 3.424-1.516.354 0 .752.025 1.256.078zm12.608 13.412a.22.22 0 00.017.025c-.853.026-1.648.041-2.28.049a41.057 41.057 0 00-1.521-1.345 22.355 22.355 0 00-1.303-3.252c.826-.449 1.921-1.228 2.729-2.5l.367-.021c.759-.042 1.029-.064 1.397-.215-.566 2.319-.465 5.644.594 7.259z"></path><path d="M48.074 60.763c-.049.006-4.899.644-7.688-.642-2.123-.98-3.032-.653-4.083-.272-.521.188-1.061.383-1.861.455a.5.5 0 00-.453.543.508.508 0 00.543.453 7.245 7.245 0 001.892-.434l.22-.077c.925-.336 1.552-.552 3.21.192.04.018.073.028.114.048 1.564.722 3.632.901 5.306.901 1.595 0 2.833-.163 2.936-.178a.5.5 0 00.428-.562.492.492 0 00-.564-.427z"></path></g><!----></svg>