<svg data-v-423bf9ae="" xmlns="http://www.w3.org/2000/svg" viewBox="0 0 359.04493270345586 60" class="font"><!----><!----><!----><g data-v-423bf9ae="" id="95947ca5-9ebd-44b6-838d-7173ffbcbfb5" fill="white" transform="matrix(5.61797736755893,0,0,5.61797736755893,-4.550566558903171,0)"><path d="M6.99 1.30L6.66 2.16Q6.13 1.81 5.49 1.60Q4.84 1.39 4.21 1.39L4.21 1.39Q3.30 1.39 2.72 1.77Q2.14 2.16 2.14 3.01L2.14 3.01Q2.14 3.46 2.34 3.78Q2.53 4.10 2.87 4.33Q3.21 4.56 3.63 4.74Q4.06 4.91 4.52 5.07L4.52 5.07Q5.04 5.24 5.57 5.45Q6.09 5.66 6.51 5.98Q6.93 6.30 7.20 6.78Q7.46 7.25 7.46 7.94L7.46 7.94Q7.46 8.65 7.18 9.17Q6.90 9.69 6.44 10.02Q5.98 10.36 5.38 10.52Q4.79 10.68 4.16 10.68L4.16 10.68Q3.23 10.68 2.35 10.36Q1.46 10.04 0.81 9.41L0.81 9.41L1.13 8.60Q1.78 9.17 2.58 9.49Q3.39 9.81 4.21 9.81L4.21 9.81Q4.68 9.81 5.09 9.72Q5.50 9.62 5.82 9.41Q6.13 9.21 6.31 8.89Q6.50 8.57 6.50 8.12L6.50 8.12Q6.51 7.63 6.27 7.28Q6.03 6.93 5.66 6.67Q5.28 6.41 4.80 6.22Q4.33 6.03 3.86 5.88L3.86 5.88Q3.36 5.71 2.88 5.46Q2.39 5.21 2.02 4.87Q1.64 4.54 1.41 4.10Q1.18 3.67 1.18 3.14L1.18 3.14Q1.18 2.45 1.44 1.95Q1.71 1.46 2.14 1.14Q2.58 0.83 3.14 0.68Q3.71 0.53 4.30 0.53L4.30 0.53Q5.04 0.53 5.74 0.73Q6.44 0.94 6.99 1.30L6.99 1.30ZM11.31 9.84L11.31 10.58Q11.31 10.60 11.01 10.64Q10.71 10.68 10.36 10.68L10.36 10.68Q10.01 10.68 9.80 10.58Q9.59 10.47 9.49 10.26Q9.38 10.05 9.35 9.75Q9.32 9.45 9.32 9.04L9.32 9.04L9.32 0.14L10.21 0.14L10.21 9.31Q10.21 9.60 10.31 9.76Q10.42 9.91 10.67 9.91L10.67 9.91Q10.81 9.91 11.00 9.89Q11.20 9.87 11.31 9.84L11.31 9.84ZM17.93 7.18L13.01 7.18Q12.99 7.95 13.24 8.55L13.24 8.55Q13.34 8.81 13.52 9.06Q13.69 9.31 13.94 9.50Q14.20 9.69 14.55 9.81Q14.91 9.93 15.39 9.93L15.39 9.93Q15.79 9.93 16.16 9.82Q16.52 9.72 16.80 9.59L16.80 9.59Q17.14 9.44 17.43 9.24L17.43 9.24L17.44 10.14Q17.44 10.14 17.29 10.23Q17.14 10.32 16.88 10.42Q16.62 10.51 16.26 10.60Q15.90 10.68 15.51 10.68L15.51 10.68Q14.38 10.68 13.69 10.32Q13.01 9.97 12.63 9.41Q12.25 8.85 12.13 8.15Q12.01 7.46 12.01 6.78L12.01 6.78Q12.01 6.13 12.21 5.49Q12.40 4.84 12.79 4.33Q13.17 3.82 13.75 3.51Q14.32 3.19 15.09 3.19L15.09 3.19Q15.95 3.19 16.50 3.54Q17.05 3.89 17.37 4.42Q17.68 4.96 17.81 5.59Q17.93 6.22 17.93 6.78L17.93 6.78L17.93 7.18ZM12.99 6.43L16.95 6.43Q16.95 5.96 16.85 5.52Q16.74 5.07 16.52 4.72Q16.30 4.37 15.94 4.16Q15.58 3.95 15.09 3.95L15.09 3.95Q14.60 3.95 14.22 4.17Q13.83 4.40 13.56 4.75Q13.29 5.10 13.14 5.54Q12.99 5.99 12.99 6.43L12.99 6.43ZM24.98 7.18L20.05 7.18Q20.03 7.95 20.29 8.55L20.29 8.55Q20.38 8.81 20.56 9.06Q20.73 9.31 20.99 9.50Q21.24 9.69 21.59 9.81Q21.95 9.93 22.43 9.93L22.43 9.93Q22.83 9.93 23.20 9.82Q23.56 9.72 23.84 9.59L23.84 9.59Q24.18 9.44 24.47 9.24L24.47 9.24L24.49 10.14Q24.49 10.14 24.33 10.23Q24.18 10.32 23.92 10.42Q23.66 10.51 23.30 10.60Q22.95 10.68 22.55 10.68L22.55 10.68Q21.42 10.68 20.73 10.32Q20.05 9.97 19.67 9.41Q19.29 8.85 19.17 8.15Q19.05 7.46 19.05 6.78L19.05 6.78Q19.05 6.13 19.25 5.49Q19.45 4.84 19.83 4.33Q20.22 3.82 20.79 3.51Q21.36 3.19 22.13 3.19L22.13 3.19Q22.99 3.19 23.54 3.54Q24.09 3.89 24.41 4.42Q24.72 4.96 24.85 5.59Q24.98 6.22 24.98 6.78L24.98 6.78L24.98 7.18ZM20.03 6.43L24.00 6.43Q24.00 5.96 23.89 5.52Q23.79 5.07 23.56 4.72Q23.34 4.37 22.98 4.16Q22.62 3.95 22.13 3.95L22.13 3.95Q21.64 3.95 21.26 4.17Q20.87 4.40 20.60 4.75Q20.33 5.10 20.18 5.54Q20.03 5.99 20.03 6.43L20.03 6.43ZM31.89 3.36L28.88 6.48L32.34 10.50L31.11 10.50L28.08 6.90L27.54 6.90L27.54 10.50L26.66 10.50L26.66 0L27.54 0L27.54 6.06L28.08 6.06L30.76 3.36L31.89 3.36ZM38.54 10.50L37.59 10.50L37.59 0.71L38.74 0.71L43.90 9.32L43.90 0.71L44.87 0.71L44.87 10.50L43.61 10.50L38.54 2.07L38.54 10.50ZM49.64 3.19L49.64 3.19Q49.77 3.19 49.99 3.21Q50.22 3.22 50.48 3.30Q50.74 3.37 51.00 3.54Q51.27 3.70 51.49 3.98Q51.70 4.26 51.84 4.68Q51.98 5.11 51.98 5.73L51.98 5.73L51.98 10.50L51.23 10.50L51.14 9.35Q51.14 9.35 51.02 9.56Q50.89 9.77 50.62 10.02Q50.36 10.28 49.95 10.48Q49.53 10.68 48.94 10.68L48.94 10.68Q47.78 10.68 47.12 10.12Q46.45 9.55 46.52 8.46L46.52 8.46Q46.59 7.22 47.68 6.66Q48.78 6.10 51.09 6.15L51.09 6.15L51.09 5.71Q51.09 5.00 50.88 4.63Q50.67 4.27 50.39 4.12Q50.11 3.98 49.84 3.97Q49.57 3.96 49.46 3.96L49.46 3.96Q48.94 3.96 48.55 4.06Q48.16 4.16 47.89 4.27L47.89 4.27Q47.57 4.41 47.35 4.56L47.35 4.56L47.35 3.68Q47.68 3.56 48.05 3.44L48.05 3.44Q48.37 3.35 48.78 3.27Q49.20 3.19 49.64 3.19ZM48.90 9.93L48.90 9.93Q49.67 9.93 50.11 9.65Q50.55 9.38 50.77 8.97Q50.99 8.55 51.04 8.09Q51.09 7.62 51.09 7.21L51.09 7.21L51.09 6.92L50.29 6.92Q50.01 6.92 49.53 6.96Q49.06 7.01 48.60 7.17Q48.15 7.34 47.82 7.64Q47.49 7.94 47.49 8.46L47.49 8.46Q47.49 9.24 47.89 9.58Q48.29 9.93 48.90 9.93ZM55.02 3.36L55.02 10.50L54.14 10.50L54.14 3.36L55.02 3.36ZM55.17 0.97L55.17 0.97Q55.17 1.20 55.01 1.37Q54.84 1.54 54.60 1.54L54.60 1.54Q54.36 1.54 54.18 1.37Q54.00 1.20 54.00 0.97L54.00 0.97Q54.00 0.73 54.18 0.55Q54.36 0.36 54.60 0.36L54.60 0.36Q54.84 0.36 55.01 0.55Q55.17 0.73 55.17 0.97ZM59.26 9.84L59.26 10.58Q59.26 10.60 58.96 10.64Q58.66 10.68 58.31 10.68L58.31 10.68Q57.96 10.68 57.75 10.58Q57.54 10.47 57.44 10.26Q57.33 10.05 57.30 9.75Q57.27 9.45 57.27 9.04L57.27 9.04L57.27 0.14L58.16 0.14L58.16 9.31Q58.16 9.60 58.26 9.76Q58.37 9.91 58.62 9.91L58.62 9.91Q58.76 9.91 58.95 9.89Q59.15 9.87 59.26 9.84L59.26 9.84ZM64.44 3.82L64.12 4.52Q63.71 4.26 63.25 4.10Q62.79 3.95 62.37 3.95L62.37 3.95Q61.77 3.95 61.44 4.22Q61.11 4.49 61.11 5.08L61.11 5.08Q61.11 5.36 61.24 5.56Q61.36 5.77 61.57 5.92Q61.78 6.08 62.05 6.20Q62.33 6.31 62.64 6.41L62.64 6.41Q63 6.54 63.37 6.69Q63.74 6.85 64.04 7.09Q64.34 7.34 64.53 7.70Q64.72 8.06 64.72 8.61L64.72 8.61Q64.72 9.14 64.52 9.53Q64.32 9.93 63.99 10.18Q63.66 10.43 63.23 10.55Q62.80 10.67 62.34 10.67L62.34 10.67Q61.67 10.67 61.01 10.44Q60.35 10.21 59.89 9.72L59.89 9.72L60.20 8.96Q60.68 9.41 61.24 9.66Q61.80 9.91 62.37 9.91L62.37 9.91Q62.99 9.91 63.36 9.63Q63.73 9.34 63.74 8.74L63.74 8.74Q63.74 8.41 63.62 8.19Q63.50 7.97 63.29 7.80Q63.08 7.64 62.80 7.52Q62.51 7.39 62.19 7.28L62.19 7.28Q61.82 7.15 61.46 7Q61.10 6.85 60.80 6.61Q60.51 6.37 60.33 6.02Q60.16 5.67 60.16 5.15L60.16 5.15Q60.16 4.63 60.35 4.26Q60.54 3.88 60.85 3.65Q61.17 3.42 61.58 3.30Q61.99 3.19 62.44 3.19L62.44 3.19Q62.97 3.19 63.50 3.36Q64.02 3.53 64.44 3.82L64.44 3.82Z"></path></g><!----><!----></svg>